<svg id="visual" viewBox="0 0 900 600" width="900" height="600" xmlns="http://www.w3.org/2000/svg" xmlns:xlink="http://www.w3.org/1999/xlink" version="1.1"><rect x="0" y="0" width="900" height="600" fill="#222"></rect><g fill="#fff"><circle r="14" cx="830" cy="86"></circle><circle r="5" cx="738" cy="127"></circle><circle r="8" cx="249" cy="296"></circle><circle r="4" cx="804" cy="183"></circle><circle r="5" cx="745" cy="379"></circle><circle r="4" cx="594" cy="589"></circle><circle r="10" cx="211" cy="535"></circle><circle r="12" cx="814" cy="124"></circle><circle r="5" cx="569" cy="494"></circle><circle r="12" cx="674" cy="243"></circle><circle r="8" cx="830" cy="217"></circle><circle r="4" cx="720" cy="430"></circle><circle r="12" cx="510" cy="103"></circle><circle r="4" cx="562" cy="109"></circle><circle r="4" cx="640" cy="124"></circle><circle r="12" cx="272" cy="358"></circle><circle r="8" cx="650" cy="162"></circle><circle r="9" cx="246" cy="498"></circle><circle r="7" cx="543" cy="174"></circle><circle r="6" cx="117" cy="224"></circle><circle r="5" cx="825" cy="348"></circle><circle r="12" cx="632" cy="477"></circle><circle r="5" cx="40" cy="160"></circle><circle r="11" cx="170" cy="486"></circle><circle r="12" cx="24" cy="130"></circle><circle r="7" cx="173" cy="86"></circle><circle r="4" cx="355" cy="336"></circle><circle r="12" cx="619" cy="164"></circle><circle r="10" cx="57" cy="315"></circle><circle r="12" cx="317" cy="541"></circle><circle r="7" cx="748" cy="188"></circle><circle r="4" cx="737" cy="577"></circle><circle r="8" cx="299" cy="9"></circle><circle r="12" cx="20" cy="426"></circle><circle r="11" cx="693" cy="42"></circle><circle r="8" cx="557" cy="302"></circle><circle r="10" cx="339" cy="393"></circle><circle r="6" cx="50" cy="477"></circle><circle r="9" cx="460" cy="72"></circle><circle r="6" cx="731" cy="323"></circle><circle r="8" cx="875" cy="66"></circle><circle r="12" cx="419" cy="421"></circle><circle r="10" cx="564" cy="230"></circle><circle r="4" cx="390" cy="270"></circle><circle r="12" cx="149" cy="67"></circle><circle r="4" cx="30" cy="317"></circle><circle r="9" cx="724" cy="19"></circle><circle r="6" cx="145" cy="465"></circle><circle r="6" cx="480" cy="327"></circle><circle r="9" cx="143" cy="20"></circle><circle r="4" cx="537" cy="69"></circle><circle r="9" cx="863" cy="142"></circle><circle r="5" cx="386" cy="100"></circle><circle r="6" cx="479" cy="19"></circle><circle r="9" cx="84" cy="18"></circle><circle r="6" cx="397" cy="591"></circle><circle r="4" cx="697" cy="204"></circle><circle r="5" cx="761" cy="29"></circle><circle r="4" cx="257" cy="532"></circle><circle r="5" cx="611" cy="57"></circle><circle r="10" cx="124" cy="504"></circle><circle r="7" cx="853" cy="284"></circle><circle r="10" cx="757" cy="453"></circle><circle r="12" cx="391" cy="470"></circle><circle r="4" cx="6" cy="280"></circle><circle r="9" cx="375" cy="168"></circle><circle r="8" cx="15" cy="595"></circle><circle r="6" cx="609" cy="265"></circle><circle r="6" cx="659" cy="390"></circle><circle r="5" cx="835" cy="547"></circle><circle r="7" cx="828" cy="487"></circle><circle r="7" cx="708" cy="594"></circle><circle r="9" cx="622" cy="564"></circle><circle r="7" cx="163" cy="224"></circle><circle r="5" cx="144" cy="197"></circle><circle r="7" cx="71" cy="132"></circle><circle r="6" cx="773" cy="308"></circle><circle r="8" cx="477" cy="384"></circle><circle r="8" cx="861" cy="104"></circle><circle r="9" cx="281" cy="156"></circle><circle r="5" cx="312" cy="375"></circle><circle r="4" cx="705" cy="542"></circle><circle r="4" cx="865" cy="477"></circle><circle r="5" cx="144" cy="294"></circle><circle r="6" cx="239" cy="264"></circle><circle r="9" cx="339" cy="178"></circle></g></svg>